# File created by Blade
# Date/Time:  Wed Jan 21 15:23:43 2015
# Frame Rate: 120.000 fps
#------------------------------------------------------
:FULLY-SPECIFIED
:DEGREES
1328
root 32.861147 27.937033 -18.168013 -162.208620 1.629203 -166.383636
Spine 4.203073 -1.391381 12.254066
Head -20.837610 7.968329 1.273839
LeftShoulder -5.862777 -25.356734 -1.055854
LeftArm -24.779174 39.634547 -89.449085
LeftForeArm 14.507088 -0.000000 26.890630
LeftHand 1.020867 -0.000000 -3.445827
LeftHandThumb1 -26.253704 0.000000 33.147579
RightShoulder -3.113895 -11.020404 4.190567
RightArm 16.034956 -24.499829 57.589255
RightForeArm -36.302463 -0.000000 61.080894
RightHand 3.993136 -0.000000 1.828769
RightHandThumb1 -24.326973 -0.000000 -32.862282
LeftUpLeg -9.470750 34.156279 46.452949
LeftLeg -3.783686 -0.000000 0.000000
LeftFoot -9.981622 16.028121 -17.588369
LeftToeBase 40.397047 -0.000000 -0.000000
RightUpLeg -58.694934 -17.085807 23.553866
RightLeg 73.257296 -0.000000 -0.000000
RightFoot -51.455945 -21.282328 21.496258
RightToeBase 23.230262 -0.000000 -0.000000
1329
root 32.869903 27.927870 -18.171293 -162.234840 1.692808 -166.410502
Spine 4.213895 -1.354408 12.228996
Head -20.881022 7.954756 1.212238
LeftShoulder -5.875327 -25.366552 -1.080965
LeftArm -24.786875 39.614026 -89.431084
LeftForeArm 14.522024 -0.000000 26.868799
LeftHand 0.997106 -0.000000 -3.389725
LeftHandThumb1 -26.253704 0.000000 33.147579
RightShoulder -3.133362 -11.049757 4.233496
RightArm 16.121822 -24.541867 57.458680
RightForeArm -36.270641 0.000000 61.090118
RightHand 4.033639 0.000000 1.878779
RightHandThumb1 -24.326973 -0.000000 -32.862282
LeftUpLeg -9.343821 34.092436 46.491309
LeftLeg -3.832681 -0.000000 0.000000
LeftFoot -10.003328 16.093168 -17.610129
LeftToeBase 40.369043 -0.000000 -0.000000
RightUpLeg -58.682990 -17.038392 23.515993
RightLeg 73.315936 -0.000000 -0.000000
RightFoot -51.458337 -21.193679 21.558415
RightToeBase 22.980147 -0.000000 -0.000000
1330
root 32.878689 27.918366 -18.174898 -162.275325 1.761840 -166.444246
Spine 4.249536 -1.312542 12.195241
Head -20.968619 7.972039 1.167711
LeftShoulder -5.877843 -25.387996 -1.095051
LeftArm -24.776092 39.515723 -89.407960
LeftForeArm 14.557022 -0.000000 26.816353
LeftHand 1.016463 -0.000000 -3.300989
LeftHandThumb1 -26.253704 0.000000 33.147579
RightShoulder -3.165105 -11.076314 4.270947
RightArm 16.223458 -24.597872 57.319646
RightForeArm -36.295560 -0.000000 61.116930
RightHand 4.018770 -0.000000 1.973490
RightHandThumb1 -24.326973 -0.000000 -32.862282
LeftUpLeg -9.197034 34.000907 46.533399
LeftLeg -3.885314 -0.000000 0.000000
LeftFoot -10.016247 16.181285 -17.602120
LeftToeBase 40.282779 -0.000000 -0.000000
RightUpLeg -58.653739 -16.993025 23.462241
RightLeg 73.381209 -0.000000 -0.000000
RightFoot -51.494851 -21.179710 21.566613
RightToeBase 22.936672 -0.000000 -0.000000
1331
root 32.886249 27.909485 -18.179708 -162.313177 1.832838 -166.491723
Spine 4.260877 -1.302505 12.160595
Head -20.976556 8.008528 1.077328
LeftShoulder -5.899437 -25.384895 -1.117438
LeftArm -24.742029 39.478347 -89.382162
LeftForeArm 14.528354 -0.000000 26.731601
LeftHand 1.071101 -0.000000 -3.301132
LeftHandThumb1 -26.253704 0.000000 33.147579
RightShoulder -3.137549 -11.081718 4.288952
RightArm 16.262536 -24.668627 57.220512
RightForeArm -36.211247 -0.000000 61.115038
RightHand 4.016330 -0.000000 1.928803
RightHandThumb1 -24.326973 -0.000000 -32.862282
LeftUpLeg -9.060140 33.928983 46.552035
LeftLeg -3.926251 -0.000000 0.000000
LeftFoot -10.041916 16.226393 -17.614268
LeftToeBase 40.313010 -0.000000 -0.000000
RightUpLeg -58.631808 -16.969520 23.403058
RightLeg 73.446847 -0.000000 -0.000000
RightFoot -51.531931 -21.158257 21.560800
RightToeBase 22.924973 -0.000000 -0.000000
1332
root 32.893955 27.901587 -18.184719 -162.340399 1.907233 -166.536626
Spine 4.268421 -1.268637 12.130830
Head -21.000967 8.037873 0.991445
LeftShoulder -5.907712 -25.418522 -1.126929
LeftArm -24.803204 39.453138 -89.418206
LeftForeArm 14.615065 -0.000000 26.742241
LeftHand 0.755444 -0.000000 -2.985624
LeftHandThumb1 -26.253704 0.000000 33.147579
RightShoulder -3.148849 -11.100810 4.341185
RightArm 16.342104 -24.775013 57.012981
RightForeArm -36.191753 0.000000 61.147310
RightHand 4.047001 -0.000000 1.970221
RightHandThumb1 -24.326973 -0.000000 -32.862282
LeftUpLeg -8.930307 33.851990 46.571450
LeftLeg -3.964478 -0.000000 0.000000
LeftFoot -10.066813 16.305712 -17.623394
LeftToeBase 40.318496 -0.000000 -0.000000
RightUpLeg -58.617486 -16.940313 23.348316
RightLeg 73.510264 -0.000000 -0.000000
RightFoot -51.560233 -21.143004 21.558131
RightToeBase 22.897240 -0.000000 -0.000000
1333
root 32.901059 27.894626 -18.189384 -162.366157 1.996032 -166.578713
Spine 4.281197 -1.236395 12.110992
Head -21.012119 8.094130 0.903632
LeftShoulder -5.955643 -25.415322 -1.153035
LeftArm -24.777183 39.469546 -89.391961
LeftForeArm 14.591805 -0.000000 26.725655
LeftHand 0.734938 -0.000000 -2.947896
LeftHandThumb1 -26.253704 0.000000 33.147579
RightShoulder -3.148930 -11.141234 4.380049
RightArm 16.438475 -24.870990 56.798683
RightForeArm -36.188490 0.000000 61.201589
RightHand 4.045761 -0.000000 2.048254
RightHandThumb1 -24.326973 -0.000000 -32.862282
LeftUpLeg -8.793825 33.769904 46.598031
LeftLeg -3.984598 -0.000000 0.000000
LeftFoot -10.095679 16.390331 -17.657900
LeftToeBase 40.205831 -0.000000 -0.000000
RightUpLeg -58.597445 -16.900583 23.290161
RightLeg 73.563688 -0.000000 -0.000000
RightFoot -51.582253 -21.123991 21.560511
RightToeBase 22.863453 -0.000000 -0.000000
